HIERARCHY
ROOT Hips
{
	OFFSET	0.00	0.00	0.00
	CHANNELS 6 Xposition Yposition Zposition Zrotation Xrotation Yrotation
	JOINT LeftUpLeg
	{
		OFFSET	 0.126116	-0.014019	-0.065224
		CHANNELS 3 Zrotation Xrotation Yrotation
		JOINT LeftLeg
		{
			OFFSET	 0.000000	 0.000000	 0.569914
			CHANNELS 3 Zrotation Xrotation Yrotation
			JOINT LeftFoot
			{
				OFFSET	 0.000000	 0.000000	 0.544423
				CHANNELS 3 Zrotation Xrotation Yrotation
				JOINT LeftToeBase
				{
					OFFSET	 0.000000	 0.000000	 0.207117
					CHANNELS 3 Zrotation Xrotation Yrotation
					End Site
					{
						OFFSET	 0.000000	 0.000000	 0.207117
					}
				}
			}
		}
	}
	JOINT RightUpLeg
	{
		OFFSET	-0.124023	-0.008373	-0.065224
		CHANNELS 3 Zrotation Xrotation Yrotation
		JOINT RightLeg
		{
			OFFSET	 0.000000	 0.000000	 0.570047
			CHANNELS 3 Zrotation Xrotation Yrotation
			JOINT RightFoot
			{
				OFFSET	 0.000000	 0.000000	 0.544354
				CHANNELS 3 Zrotation Xrotation Yrotation
				JOINT RightToeBase
				{
					OFFSET	 0.000000	 0.000000	 0.207540
					CHANNELS 3 Zrotation Xrotation Yrotation
					End Site
					{
						OFFSET	 0.000000	 0.000000	 0.207540
					}
				}
			}
		}
	}
	JOINT Spine
	{
		OFFSET	 0.000184	-0.007763	 0.117403
		CHANNELS 3 Zrotation Xrotation Yrotation
		JOINT Spine1
		{
			OFFSET	 0.000000	 0.000000	 0.137269
			CHANNELS 3 Zrotation Xrotation Yrotation
			JOINT Spine2
			{
				OFFSET	 0.000000	 0.000000	 0.156879
				CHANNELS 3 Zrotation Xrotation Yrotation
				JOINT LeftShoulder
				{
					OFFSET	 0.080501	-0.002496	 0.160144
					CHANNELS 3 Zrotation Xrotation Yrotation
					JOINT LeftArm
					{
						OFFSET	 0.000000	 0.000000	 0.164363
						CHANNELS 3 Zrotation Xrotation Yrotation
						JOINT LeftForeArm
						{
							OFFSET	 0.000000	 0.000000	 0.364576
							CHANNELS 3 Zrotation Xrotation Yrotation
							JOINT LeftHand
							{
								OFFSET	 0.000000	 0.000000	 0.360812
								CHANNELS 3 Zrotation Xrotation Yrotation
								JOINT LeftHandIndex1
								{
									OFFSET	 0.000000	 0.000000	 0.086006
									CHANNELS 3 Zrotation Xrotation Yrotation
									JOINT LeftHandIndex2
									{
										OFFSET	 0.000000	 0.000000	 0.047237
										CHANNELS 3 Zrotation Xrotation Yrotation
										JOINT LeftHandIndex3
										{
											OFFSET	-0.004284	-0.000551	 0.038165
											CHANNELS 3 Zrotation Xrotation Yrotation
											End Site
											{
												OFFSET	-0.004284	-0.000551	 0.038165
											}
										}
									}
								}
							}
						}
					}
				}
				JOINT Neck
				{
					OFFSET	 0.000000	 0.000000	 0.176489
					CHANNELS 3 Zrotation Xrotation Yrotation
					JOINT Head
					{
						OFFSET	 0.000000	-0.001747	 0.077940
						CHANNELS 3 Zrotation Xrotation Yrotation
						End Site
						{
							OFFSET	 0.000000	-0.001747	 0.077940
						}
					}
				}
				JOINT RightShoulder
				{
					OFFSET	-0.080363	 0.000306	 0.159706
					CHANNELS 3 Zrotation Xrotation Yrotation
					JOINT RightArm
					{
						OFFSET	 0.000000	 0.000000	 0.164196
						CHANNELS 3 Zrotation Xrotation Yrotation
						JOINT RightForeArm
						{
							OFFSET	 0.000000	 0.000000	 0.365611
							CHANNELS 3 Zrotation Xrotation Yrotation
							JOINT RightHand
							{
								OFFSET	 0.000000	 0.000000	 0.360648
								CHANNELS 3 Zrotation Xrotation Yrotation
								JOINT RightHandIndex1
								{
									OFFSET	 0.000000	 0.000000	 0.069977
									CHANNELS 3 Zrotation Xrotation Yrotation
									JOINT RightHandIndex2
									{
										OFFSET	 0.000000	 0.000000	 0.052305
										CHANNELS 3 Zrotation Xrotation Yrotation
										JOINT RightHandIndex3
										{
											OFFSET	 0.009002	-0.000782	 0.042196
											CHANNELS 3 Zrotation Xrotation Yrotation
											End Site
											{
												OFFSET	 0.009002	-0.000782	 0.042196
											}
										}
									}
								}
							}
						}
					}
				}
			}
		}
	}
}
MOTION
Frames:    12
Frame Time: 0.03333334
-0.402723	 0.177818	 1.224639	-175.279400	 12.779720	 12.527220	 40.985520	-14.932760	 173.368900	-8.564392	-42.218850	-6.160755	 148.865300	 77.078580	-159.932300	-2.385833	 28.452760	 0.000004	-34.286870	-39.645820	 151.193100	 5.880250	-49.484280	 3.315461	-14.608940	 75.223720	 33.307320	 2.384659	 28.388700	-0.000001	 90.520690	-22.676920	 21.506970	 52.442270	 19.763480	 5.352938	-21.487780	-6.368738	-23.505820	-91.776230	 78.527350	-180.000000	 1.766137	 42.545950	-10.452370	 10.036340	 28.314230	-112.418100	 20.532300	-26.325780	 6.559766	-4.130319	 21.525730	 0.991547	-5.167930	 0.731704	 3.519349	-1.378229	 35.397820	-2.634230	-17.814780	 7.731674	 7.572171	-27.032990	-22.200690	-16.919100	 89.782040	 78.203900	-180.000000	 82.882820	 1.207926	-5.909471	 3.144171	 20.315100	 55.903850	-72.555190	 16.130540	-101.736900	 5.716227	 19.173190	-3.685159	 5.027444	 0.246877	-9.377972	-2.350882	 35.473990	 5.254307
-0.408706	 0.191209	 1.228180	-173.941500	 12.172190	 10.403790	 41.859000	-10.673290	 173.994700	-8.716695	-38.681970	-5.829807	 148.623400	 77.043300	-158.761400	-2.385833	 28.452760	 0.000004	-31.423880	-39.855480	 155.334300	 5.891058	-50.055440	 3.351785	-9.861385	 76.336620	 27.798530	 2.384659	 28.388700	-0.000001	 87.091610	-20.059160	 21.512160	 48.932700	 18.877260	 7.256946	-20.573290	-5.784448	-22.894020	-91.776220	 78.527380	-180.000000	-1.113716	 39.322430	-2.775013	 10.115390	 26.662740	-113.764700	 24.376690	-27.231740	 8.653177	-4.130319	 21.525730	 0.991547	-5.167930	 0.731704	 3.519349	-1.378229	 35.397820	-2.634230	-17.294150	 7.674577	 8.452295	-26.454020	-21.785260	-18.104340	 89.782120	 78.203920	 180.000000	 84.191470	-6.183294	 7.297744	 10.438590	 14.865310	 33.188170	-80.500390	 12.492570	-91.787570	 5.716227	 19.173190	-3.685159	 5.027444	 0.246877	-9.377972	-2.350882	 35.473990	 5.254307
-0.411973	 0.200520	 1.230554	-172.479700	 11.097530	 9.444481	 42.592540	-7.557612	 173.369800	-8.907779	-35.590630	-5.544350	 147.140300	 77.312480	-156.803100	-2.385833	 28.452760	 0.000004	-29.167330	-39.322080	 158.109900	 5.778119	-50.274870	 3.275425	-5.218566	 77.654190	 22.077260	 2.384659	 28.388700	-0.000001	 83.204990	-18.381290	 20.468270	 46.116970	 17.699330	 9.533470	-19.565110	-5.170669	-22.544540	-91.776160	 78.527420	 180.000000	-3.944655	 38.366200	 3.379567	 10.110930	 25.692340	-114.762300	 27.695300	-28.679190	 10.708010	-4.130319	 21.525730	 0.991547	-5.167930	 0.731704	 3.519349	-1.378229	 35.397820	-2.634230	-16.534470	 7.675313	 8.224042	-25.754500	-22.281970	-16.987040	 89.782070	 78.203830	-180.000000	 78.812450	-10.472930	 16.986620	 13.326160	 7.936681	 13.662890	-82.004150	 5.363072	-88.331410	 5.716227	 19.173190	-3.685159	 5.027444	 0.246877	-9.377972	-2.350882	 35.473990	 5.254307
-0.413299	 0.206284	 1.232471	-171.360900	 10.393070	 8.931785	 43.173310	-5.684600	 172.860200	-9.274188	-33.278410	-5.434170	 141.730100	 77.845390	-151.114300	-2.385833	 28.452760	 0.000004	-27.142580	-39.084770	 159.884900	 5.282668	-50.150730	 2.888389	 1.094297	 78.261860	 14.914610	 2.384659	 28.388700	-0.000001	 80.077890	-17.646340	 19.707070	 44.162020	 16.433360	 11.395070	-18.407470	-3.778844	-22.359680	-91.776210	 78.527420	-180.000000	-6.841331	 38.254060	 7.389920	 9.971136	 25.188420	-115.239100	 30.508400	-30.070010	 12.519610	-4.130319	 21.525730	 0.991547	-5.167930	 0.731704	 3.519349	-1.378229	 35.397820	-2.634230	-15.959620	 7.913740	 8.794078	-25.279540	-22.084050	-17.956660	 89.782070	 78.203900	-180.000000	 73.356160	-13.166040	 15.893740	 12.390470	 7.443617	 13.347110	-81.611260	 8.461320	-87.423230	 5.716227	 19.173190	-3.685159	 5.027444	 0.246877	-9.377972	-2.350882	 35.473990	 5.254307
-0.412748	 0.208539	 1.233334	-170.256900	 9.313733	 8.232757	 43.437290	-4.188216	 172.335200	-10.016930	-32.059480	-5.661188	 140.516900	 77.748350	-149.315300	-2.385833	 28.452760	 0.000004	-24.924280	-38.444750	 161.797000	 4.753939	-49.653560	 2.463793	 5.312228	 78.295780	 10.364120	 2.384659	 28.388700	-0.000001	 77.021180	-15.512500	 18.645160	 42.141000	 14.850310	 13.342660	-17.282250	-3.251088	-21.696180	-91.776210	 78.527360	-180.000000	-9.461576	 38.478550	 10.009870	 9.576055	 24.977940	-115.009300	 33.028410	-31.162790	 14.077530	-4.130319	 21.525730	 0.991547	-5.167930	 0.731704	 3.519349	-1.378229	 35.397820	-2.634230	-14.702580	 8.982009	 7.597495	-24.560930	-23.435740	-16.425770	 89.782140	 78.203890	 180.000000	 66.255270	-14.579260	 14.027040	 11.811020	 6.994329	 13.039300	-79.175770	 9.481732	-86.963940	 5.716227	 19.173190	-3.685159	 5.027444	 0.246877	-9.377972	-2.350882	 35.473990	 5.254307
-0.411914	 0.208700	 1.233807	-169.631100	 8.754239	 8.306252	 44.417200	-4.156973	 171.524800	-10.755420	-31.891870	-6.035467	 140.135200	 77.644980	-148.530700	-2.385833	 28.452760	 0.000004	-22.824140	-38.113770	 162.537800	 3.954259	-49.123530	 1.839065	 9.660635	 78.077440	 5.794402	 2.384659	 28.388700	-0.000001	 75.124120	-14.686860	 17.427130	 41.226400	 13.861450	 14.589210	-16.327740	-2.539855	-21.273860	-91.776180	 78.527400	-180.000000	-11.513560	 39.133470	 11.108840	 9.215929	 24.803960	-114.560700	 34.825210	-31.923960	 15.247820	-4.130319	 21.525730	 0.991547	-5.167930	 0.731704	 3.519349	-1.378229	 35.397820	-2.634230	-13.784340	 8.455071	 7.280954	-23.766950	-22.882230	-15.563040	 89.782100	 78.203850	-180.000000	 62.149910	-14.899430	 12.855870	 11.354630	 6.757434	 12.870800	-76.794920	 9.696195	-85.645880	 5.716227	 19.173190	-3.685159	 5.027444	 0.246877	-9.377972	-2.350882	 35.473990	 5.254307
-0.411556	 0.208171	 1.234129	-169.551800	 8.226280	 8.452581	 45.298390	-4.045649	 170.870100	-11.663400	-31.738260	-6.502071	 142.409500	 77.495450	-150.059000	-2.385833	 28.452760	 0.000004	-21.736340	-37.630530	 162.862400	 3.423450	-48.770100	 1.429759	 11.095320	 77.863270	 4.428432	 2.384659	 28.388700	-0.000001	 74.278200	-13.913930	 16.462150	 40.638640	 12.946040	 15.505380	-15.501170	-1.702073	-20.913590	-91.776190	 78.527380	 180.000000	-12.576380	 39.429840	 11.281390	 8.998333	 24.738980	-114.260800	 35.681250	-32.371060	 15.877820	-4.130319	 21.525730	 0.991547	-5.167930	 0.731704	 3.519349	-1.378229	 35.397820	-2.634230	-13.287610	 8.367520	 7.488173	-23.270340	-22.435190	-16.243880	 89.782080	 78.203920	-180.000000	 60.698490	-14.750780	 12.287390	 10.844830	 6.623195	 12.777570	-74.713260	 9.904261	-83.776670	 5.716227	 19.173190	-3.685159	 5.027444	 0.246877	-9.377972	-2.350882	 35.473990	 5.254307
-0.411803	 0.207714	 1.234609	-170.081100	 8.448956	 8.227644	 46.679470	-4.041010	 171.127100	-12.333600	-31.429390	-6.807751	 143.191000	 76.177560	-150.216500	-2.385833	 28.452760	 0.000004	-20.401040	-38.310250	 163.290600	 2.692081	-48.805370	 0.880031	 15.685570	 77.048130	-0.141029	 2.384659	 28.388700	-0.000001	 74.875570	-14.251210	 17.071220	 40.572230	 13.154260	 15.138000	-15.410690	-1.814768	-20.805380	-91.776190	 78.527360	-180.000000	-12.202830	 39.199680	 10.956440	 9.006250	 24.763910	-114.304300	 35.344430	-32.250870	 15.699740	-4.130319	 21.525730	 0.991547	-5.167930	 0.731704	 3.519349	-1.378229	 35.397820	-2.634230	-13.500180	 8.298194	 8.028080	-23.255460	-22.207630	-16.969740	 89.782160	 78.203870	 179.999900	 60.842970	-14.551990	 12.232070	 10.806500	 6.596413	 12.757030	-73.473790	 10.407490	-81.851760	 5.716227	 19.173190	-3.685159	 5.027444	 0.246877	-9.377972	-2.350882	 35.473990	 5.254307
-0.411924	 0.207255	 1.234681	-170.681600	 8.181005	 8.874605	 46.669380	-4.314715	 170.680300	-13.068900	-31.528470	-7.239608	 144.501400	 75.583450	-150.999600	-2.385833	 28.452760	 0.000004	-21.187880	-37.509750	 162.416000	 2.760387	-48.406390	 0.925734	 13.197250	 77.122380	 2.418328	 2.384659	 28.388700	-0.000001	 75.127710	-14.268860	 16.285280	 40.510490	 12.577170	 15.590050	-15.143820	-1.125175	-20.809680	-91.776180	 78.527360	 180.000000	-10.719060	 38.426700	 9.783350	 8.904888	 24.881090	-114.091000	 34.319990	-31.568470	 14.971240	-4.130319	 21.525730	 0.991547	-5.167930	 0.731704	 3.519349	-1.378229	 35.397820	-2.634230	-13.345990	 8.710921	 7.205232	-23.373860	-22.591480	-16.879870	 89.782170	 78.203900	 179.999900	 63.170080	-14.017300	 12.844260	 10.512110	 6.553877	 12.727160	-73.584860	 11.089060	-79.903950	 5.716227	 19.173190	-3.685159	 5.027444	 0.246877	-9.377972	-2.350882	 35.473990	 5.254307
-0.411504	 0.206976	 1.235962	-171.044300	 8.529325	 9.427765	 46.642310	-5.006217	 170.693700	-13.506930	-31.574690	-7.475307	 144.541500	 74.069330	-150.870900	-2.385833	 28.452760	 0.000004	-21.906520	-37.302780	 161.523700	 2.855597	-47.841530	 0.988181	 13.254870	 76.977740	 2.144942	 2.384659	 28.388700	-0.000001	 75.069690	-15.407070	 16.295630	 40.400780	 12.255010	 15.563730	-14.608830	-0.351485	-21.105840	-91.776140	 78.527400	 180.000000	-8.066139	 37.121060	 7.591743	 8.511864	 24.574830	-113.476800	 33.185240	-29.914900	 14.000850	-4.130319	 21.525730	 0.991547	-5.167930	 0.731704	 3.519349	-1.378229	 35.397820	-2.634230	-13.215370	 8.982710	 6.917552	-23.399090	-23.113810	-17.148520	 89.782190	 78.203850	 179.999900	 67.807490	-12.488750	 14.060690	 10.184530	 6.409170	 12.619790	-74.494580	 12.093930	-74.833690	 5.716227	 19.173190	-3.685159	 5.027444	 0.246877	-9.377972	-2.350882	 35.473990	 5.254307
-0.411298	 0.206498	 1.237793	-172.079400	 8.809011	 9.765550	 46.756440	-5.205075	 171.068300	-13.549800	-31.332550	-7.447735	 144.123500	 73.617160	-150.315200	-2.385833	 28.452760	 0.000004	-22.446210	-37.114230	 160.862800	 3.076655	-47.285970	 1.141936	 12.343960	 76.945900	 3.059856	 2.384659	 28.388700	-0.000001	 76.001910	-16.610120	 16.857320	 40.606170	 12.651100	 15.009530	-14.693780	-0.294964	-21.437230	-91.776220	 78.527400	-180.000000	-4.634910	 35.506070	 4.750119	 8.043167	 24.313820	-112.714800	 31.929690	-27.809100	 12.754940	-4.130319	 21.525730	 0.991547	-5.167930	 0.731704	 3.519349	-1.378229	 35.397820	-2.634230	-13.501450	 8.367615	 6.777323	-23.622450	-22.785440	-17.197800	 89.782080	 78.203900	-180.000000	 73.073750	-10.339480	 15.183130	 10.347790	 6.228192	 12.478430	-76.382630	 12.379800	-71.844650	 5.716227	 19.173190	-3.685159	 5.027444	 0.246877	-9.377972	-2.350882	 35.473990	 5.254307
-0.410068	 0.205492	 1.240018	-172.065900	 8.984652	 9.954181	 46.175860	-5.386574	 171.227600	-13.424940	-31.221190	-7.356578	 143.827100	 74.416630	-150.035600	-2.385833	 28.452760	 0.000004	-23.357360	-36.666450	 160.472200	 3.559402	-46.666480	 1.481771	 8.975383	 76.861090	 6.531947	 2.384659	 28.388700	-0.000001	 75.708290	-17.109280	 17.173290	 40.476980	 12.452380	 14.949730	-14.391260	-0.241143	-21.829320	-91.776180	 78.527400	 180.000000	-1.253119	 34.013110	 1.498759	 7.323044	 23.683480	-111.519800	 31.284770	-25.362420	 11.668180	-4.130319	 21.525730	 0.991547	-5.167930	 0.731704	 3.519349	-1.378229	 35.397820	-2.634230	-13.360130	 7.237402	 6.466799	-23.322310	-22.620570	-16.088020	 89.782110	 78.203820	 180.000000	 77.161390	-7.903810	 15.682570	 10.297270	 5.986854	 12.287200	-76.720040	 11.833340	-67.023540	 5.716227	 19.173190	-3.685159	 5.027444	 0.246877	-9.377972	-2.350882	 35.473990	 5.254307
